<!--?xml version="1.0" standalone="no"?-->
              <svg id="sw-js-blob-svg" viewBox="0 0 100 100" xmlns="http://www.w3.org/2000/svg" version="1.1">
                    <defs> 
                        <linearGradient id="sw-gradient" x1="0" x2="1" y1="1" y2="0">
                            <stop id="stop1" stop-color="rgba(55, 146.665, 248, 1)" offset="0%"></stop>
                            <stop id="stop2" stop-color="rgba(31, 105.679, 251, 1)" offset="100%"></stop>
                        </linearGradient>
                    </defs>
                <path fill="url(#sw-gradient)" d="M19.8,-29.3C22.1,-21.6,18,-12,20.4,-2.9C22.8,6.2,31.7,14.8,31.9,22.1C32.1,29.4,23.5,35.3,14.1,38.9C4.6,42.5,-5.9,43.7,-13,39.5C-20.1,35.3,-24,25.6,-23.3,17.8C-22.6,10,-17.5,3.9,-14.3,-0.5C-11.1,-4.8,-9.8,-7.5,-7.8,-15.2C-5.7,-22.9,-2.8,-35.6,2.9,-39.1C8.7,-42.6,17.5,-36.9,19.8,-29.3Z" width="100%" height="100%" transform="translate(50 50)" stroke-width="0" style="transition: all 0.3s ease 0s;"></path>
              </svg>